<?xml version="1.0" encoding="utf-8"?>
<!-- Generator: Adobe Illustrator 22.1.0, SVG Export Plug-In . SVG Version: 6.00 Build 0)  -->
<svg version="1.1" id="Layer_1" xmlns="http://www.w3.org/2000/svg" xmlns:xlink="http://www.w3.org/1999/xlink" x="0px" y="0px"
	 viewBox="0 0 1208 332" style="enable-background:new 0 0 1208 332;" xml:space="preserve">
<style type="text/css">
	.st0{fill:#FFFFFF;}
</style>
<g>
	<path class="st0" d="M98.6,44.5c6.9,0.6,13.3,2.5,19,5.7c5.8,3.2,10.6,8.2,14.4,15.1c2.6,4.7,3.8,9.8,3.5,15.4c0,0.6,0,1-0.1,1.3
		c-0.2,0.7-0.5,1.4-0.8,2.1c-0.4,0.7-1,1.1-1.8,1.3c-1.6,0.4-2.9-0.3-4.1-2c-1-1.8-2.1-3.5-3.3-5.2c-1.2-1.7-2.4-3.4-3.6-5.2
		c-1.7-2.4-3.7-4.4-6-5.9c-2.3-1.5-4.9-2.6-7.7-3.4c-1.6-0.5-3.1-0.5-4.5,0c-1.4,0.5-2.9,1-4.4,1.5c-3.9,1.6-7.1,3.9-9.6,6.9
		c-2.5,3-4.7,6.2-6.6,9.7c-2,3.5-3.5,7-4.7,10.6c-1.2,3.6-2.1,7.4-2.9,11.3c-0.7,3.9-1.4,7.8-1.8,11.7c-0.5,3.9-0.9,7.8-1.4,11.7
		c-0.3,2.4-0.5,4.8-0.6,7.1c-0.1,2.3-0.3,4.7-0.5,7.1c-0.1,2.4-0.2,4.8-0.3,7.2c-0.1,2.4-0.1,4.8-0.1,7.2c-0.1,4.9,0,9.8,0.4,14.7
		c0.4,4.9,1,9.7,1.8,14.6c0.4,2.2,0.7,4.5,1.1,6.8c0.4,2.3,0.9,4.5,1.7,6.6c0.8,2.6,1.9,5.1,3.1,7.4c1.3,2.3,3,4.3,5.3,6
		c0.7,0.5,1.5,0.9,2.2,1.3c0.7,0.4,1.4,0.7,2.2,0.8c1.3,0.4,2.5,0.4,3.7,0.1c1.2-0.3,2.3-1,3.4-2.2c3-3.2,5.4-6.6,7.3-10.3
		c1.9-3.7,3.3-7.6,4.3-11.8c1.1-4.5,2-9.1,2.5-14c0.2-1.2,0.5-2.3,0.9-3.3s1-1.9,1.8-2.9c0.9-1,2-1.4,3.3-1.2c1.3,0.2,2.2,1,2.7,2.2
		c0,0.2,0,0.3,0.1,0.4c0,0,0.1,0.2,0.1,0.4c0.1,2.2,0.4,4.5,1,6.6c0.6,2.2,0.7,4.5,0.3,6.8c-0.5,3.3-1.1,6.5-1.9,9.7
		c-0.8,3.2-1.8,6.3-3.1,9.3c-1.2,2.9-2.7,5.6-4.3,8c-1.7,2.5-3.5,4.9-5.5,7.2c-1,1.2-2.1,2.4-3.1,3.4c-1.1,1.1-2.1,2.2-3.2,3.3
		c-1.9,2-4,3.3-6.3,4.1c-2.3,0.8-4.8,1.4-7.3,1.9c-4.7,0.7-9,0.5-13.1-0.6c-4.1-1.2-8-3-12-5.4c-5.2-3.2-9.1-7.2-11.8-12
		c-2.6-4.9-4.6-10.1-5.9-15.8c-0.7-3.5-1.4-7.1-2.1-10.6c-0.7-3.5-1.1-7.1-1.3-10.8c-0.5-5.6-0.7-11.2-0.8-16.7
		c0-5.6,0.1-11.1,0.5-16.7c0.4-6.2,0.9-12.2,1.5-18.2c0.7-6,1.6-11.9,2.8-17.9c0.9-5.1,1.9-10.2,3-15.2c1.1-5,2.7-9.9,5-14.6
		c2.4-5,5.3-9.6,8.5-13.7c3.3-4.1,7.2-7.7,11.8-10.9c3.9-2.7,8.1-4.6,12.6-5.8C88.4,45.4,93.3,44.7,98.6,44.5z"/>
	<path class="st0" d="M237,160.4c-0.1,4.5-0.2,8.5-0.4,12c-0.2,3.5-0.7,6.9-1.5,10.1c-0.7,2.8-1.5,5.6-2.4,8.3
		c-0.8,2.8-1.9,5.5-3.2,8.2c-1.3,2.5-2.7,5-4.1,7.4c-1.4,2.4-2.8,4.9-4.2,7.3c-1.5,2.4-3.3,4.6-5.3,6.4c-2.1,1.9-4.2,3.6-6.4,5.2
		c-0.2,0.2-0.4,0.3-0.5,0.4c-0.1,0-0.3,0.2-0.5,0.4c-3,2.6-6.3,4.3-9.8,5c-3.5,0.7-7.2,1-10.9,1c-1.6,0-3.2-0.2-4.8-0.5
		c-1.6-0.3-3.2-0.6-4.8-0.9c-7.9-1.6-14.5-4.8-19.7-9.5c-5.2-4.8-9.3-10.7-12.4-17.8c-2.8-6.3-4.6-12.6-5.5-19.2
		c-0.8-6.5-0.9-13.2-0.3-19.9c0.5-5,1.2-10,2.2-14.8c1-4.9,2.4-9.7,4.1-14.4c2.4-7.1,5.6-13.7,9.4-19.8c3.8-6.1,8.6-11.6,14.4-16.6
		c7.7-6.5,16.6-10,26.7-10.5c4.8-0.3,9,0.5,12.8,2.4c3.8,1.9,7.2,4.7,10.2,8.3c3.4,4.2,5.9,8.7,7.8,13.5c1.8,4.8,3.3,9.7,4.5,14.8
		c0.7,3.1,1.3,6.2,1.8,9.2s0.9,6.2,1.3,9.4c0.5,2.7,0.9,5.4,1.2,8C237.1,156.5,237.1,158.7,237,160.4z M170.5,174.3
		c0.1,3.4,0.7,7.3,1.8,11.7c1.1,4.4,3.1,8.8,5.9,13.1c3,4.5,6.6,7.8,10.8,9.9c4.2,2.1,9.1,3,14.6,2.5c1.3-0.2,2.6-0.5,3.8-1
		c1.2-0.5,2.4-1,3.6-1.5c2.4-1.2,4.3-2.9,5.7-5c1.4-2.1,2.6-4.4,3.9-6.7c1.9-3.8,3.2-7.7,3.9-11.8c0.7-4,1.3-8.1,1.7-12.2
		c0.4-3.5,0.6-7,0.6-10.5c0-3.5-0.4-6.9-1.1-10.4c-0.5-2.4-0.9-4.9-1.3-7.3c-0.4-2.4-0.8-4.9-1.4-7.3c-0.7-3.5-1.7-6.9-2.7-10.2
		c-1.1-3.4-2.5-6.5-4.4-9.5c-1.7-2.8-3.6-5.3-5.7-7.6c-2.1-2.2-4.8-4-8-5.3c-2.7-1-4.9-1.3-6.7-0.8c-1.8,0.5-3.5,1.9-5.3,4.3
		c-4.9,6.4-8.9,13.6-11.9,21.4c-2.4,6.6-4.3,13.5-5.5,20.5C171.4,157.8,170.6,165.6,170.5,174.3z"/>
	<path class="st0" d="M326.8,219.2c0.2,4,0,6.9-0.4,8.7c-0.5,1.8-1.1,2.9-1.8,3.5c-0.8,0.7-1.8,0.7-2.8,0.3
		c-0.7-0.4-1.4-0.7-2.1-0.9c-0.7-0.2-1.3-0.6-2-1c-1.4-0.8-2.8-1.7-4.1-2.5c-1.4-0.8-2.5-1.9-3.4-3.4c-2.1-3.3-3.9-6.7-5.4-10.2
		s-2.9-7.1-4-10.7c-1.9-6.2-3.6-12.3-5.3-18.5c-1.6-6.2-3.2-12.3-4.8-18.5c-1.4-5.6-2.4-11.2-3.1-16.8c-0.7-5.6-1-11.2-1.1-16.9
		c-0.1-2.4-0.3-4.9-0.5-7.3c-0.2-2.4-0.4-4.9-0.4-7.3c-0.2-5.8-0.2-11.6,0-17.5v-3.5c-0.3-0.1-0.5-0.2-0.6-0.2
		c-0.1,0-0.3-0.1-0.5-0.1c-5.6-0.2-11.2-0.3-16.7-0.3c-5.6,0-11.1-0.2-16.7-0.4c-1.2,0-2.4-0.1-3.5-0.2c-1.1-0.1-2.3-0.3-3.5-0.4
		c-0.9-0.2-1.4-0.7-1.5-1.5c-0.2-1.1,0.1-2.2,0.9-3.4c0.8-1.1,1.8-1.7,3-1.8c6.1-0.6,12.1-1.2,18.1-1.9c6-0.7,12-1,18.1-0.8
		c0.7,0,1.3,0,1.8-0.1c0.6,0,1.2-0.1,1.8-0.1c0.3-2.1,0.6-4.2,0.8-6.1c0.3-1.9,0.5-3.9,0.7-5.8c0.7-5.6,1.6-11.1,2.8-16.4
		c1.2-5.3,2.9-10.5,5-15.7c2.1-5.2,5.6-9.8,10.2-13.7c2.7-2.1,5.9-3.7,9.7-4.6c4-1,7.8-1.7,11.3-2c3.1-0.2,6,0.3,8.8,1.3
		c2.8,1.1,5.5,2.5,8.1,4.1c1.6,1,2.6,2.3,3,3.9s0.9,3.1,1.3,4.7c0.1,0.4,0.1,0.7,0.1,1.1c0,0.3,0,0.7,0.1,1c0.6,1.9,0.8,3.7,0.8,5.4
		c0,1.7-0.2,3.5-0.5,5.2c-0.3,1.7-0.6,3.5-0.9,5.2c-0.3,1.7-0.5,3.5-0.6,5.3c-3.1,0.7-5.1-0.5-6.2-3.6c-0.4-1-0.7-2.1-0.9-3.1
		c-0.2-1-0.4-2.1-0.5-3.1c-0.1-1.4-0.6-2.7-1.4-3.8c-0.8-1.1-1.9-2.1-3.2-2.9c-1.3-0.8-2.8-1.3-4.3-1.5c-1.6-0.2-3.1-0.1-4.6,0.3
		c-1.4,0.5-2.6,1.3-3.6,2.4c-1,1.1-1.7,2.3-2.2,3.6c-0.7,1.9-1.2,3.7-1.7,5.5c-0.5,1.8-0.8,3.7-1.1,5.5c-1,5.2-1.7,10.4-2.1,15.5
		c-0.2,2-0.3,4-0.3,6c0,2.1-0.1,4.2-0.2,6.3c2.1,0.2,4,0.3,5.9,0.4c1.9,0.1,3.8,0.2,5.7,0.4c4.4,0.4,8.7,0.7,13,1
		c4.3,0.3,8.6,0.7,12.9,1.2c2.1,0.2,3.6,0.7,4.4,1.4c0.8,0.7,1.6,2.2,2.3,4.5c-0.7,0.6-1.5,1.1-2.2,1.8c-0.7,0.6-1.4,1.2-2.2,1.8
		c-0.6,0.4-1,0.6-1.4,0.6c-2.9,0-5.7,0-8.5,0c-2.8,0-5.6,0-8.5-0.1c-3.1-0.1-6.2-0.2-9.2-0.4s-6.2-0.3-9.2-0.4
		c-0.5-0.1-0.9-0.1-1.3-0.1s-0.9,0-1.3,0c0,1.7,0,3.3-0.1,4.8c0,1.5,0,2.9,0.1,4.3c0.4,6.3,0.7,12.6,1.1,18.9
		c0.4,6.3,0.8,12.5,1.3,18.8c0.3,4.6,0.8,9.1,1.6,13.5c0.8,4.4,1.5,8.9,2.2,13.4c0.7,4.9,1.5,9.7,2.2,14.6c0.7,4.9,1.3,9.8,1.7,14.7
		c0.3,3.1,0.6,6.1,0.9,9C326.4,212.7,326.6,215.9,326.8,219.2z"/>
	<path class="st0" d="M455.3,219.2c0.2,4,0,6.9-0.4,8.7c-0.5,1.8-1.1,2.9-1.8,3.5c-0.8,0.7-1.8,0.7-2.8,0.3
		c-0.7-0.4-1.4-0.7-2.1-0.9c-0.7-0.2-1.3-0.6-2-1c-1.4-0.8-2.8-1.7-4.1-2.5c-1.4-0.8-2.5-1.9-3.4-3.4c-2.1-3.3-3.9-6.7-5.4-10.2
		c-1.5-3.5-2.9-7.1-4-10.7c-1.9-6.2-3.6-12.3-5.3-18.5c-1.6-6.2-3.2-12.3-4.8-18.5c-1.4-5.6-2.4-11.2-3.1-16.8
		c-0.7-5.6-1-11.2-1.1-16.9c-0.1-2.4-0.3-4.9-0.5-7.3c-0.2-2.4-0.3-4.9-0.3-7.3c-0.2-5.8-0.2-11.6,0-17.5v-3.5
		c-0.3-0.1-0.5-0.2-0.6-0.2c-0.1,0-0.3-0.1-0.5-0.1c-5.6-0.2-11.2-0.3-16.7-0.3c-5.6,0-11.1-0.2-16.7-0.4c-1.2,0-2.4-0.1-3.5-0.2
		c-1.1-0.1-2.3-0.3-3.5-0.4c-0.9-0.2-1.4-0.7-1.5-1.5c-0.2-1.1,0.1-2.2,0.9-3.4c0.8-1.1,1.8-1.7,3-1.8c6.1-0.6,12.1-1.2,18.1-1.9
		c6-0.7,12-1,18.1-0.8c0.7,0,1.3,0,1.8-0.1c0.6,0,1.2-0.1,1.8-0.1c0.3-2.1,0.6-4.2,0.8-6.1c0.3-1.9,0.5-3.9,0.7-5.8
		c0.7-5.6,1.6-11.1,2.8-16.4c1.2-5.3,2.9-10.5,5-15.7c2.1-5.2,5.6-9.8,10.2-13.7c2.7-2.1,5.9-3.7,9.7-4.6c4-1,7.8-1.7,11.3-2
		c3.1-0.2,6,0.3,8.8,1.3c2.8,1.1,5.5,2.5,8.1,4.1c1.6,1,2.6,2.3,3,3.9c0.4,1.5,0.9,3.1,1.3,4.7c0.1,0.4,0.1,0.7,0.1,1.1
		c0,0.3,0,0.7,0.1,1c0.6,1.9,0.8,3.7,0.8,5.4c0,1.7-0.2,3.5-0.5,5.2c-0.3,1.7-0.6,3.5-0.9,5.2c-0.3,1.7-0.5,3.5-0.6,5.3
		c-3.1,0.7-5.1-0.5-6.2-3.6c-0.4-1-0.7-2.1-0.9-3.1c-0.2-1-0.4-2.1-0.5-3.1c-0.1-1.4-0.6-2.7-1.4-3.8c-0.8-1.1-1.9-2.1-3.2-2.9
		c-1.3-0.8-2.8-1.3-4.3-1.5c-1.6-0.2-3.1-0.1-4.6,0.3c-1.4,0.5-2.6,1.3-3.6,2.4c-1,1.1-1.7,2.3-2.2,3.6c-0.7,1.9-1.2,3.7-1.7,5.5
		c-0.5,1.8-0.8,3.7-1.1,5.5c-1,5.2-1.7,10.4-2.1,15.5c-0.2,2-0.3,4-0.3,6c0,2.1-0.1,4.2-0.2,6.3c2.1,0.2,4,0.3,6,0.4
		c1.9,0.1,3.8,0.2,5.7,0.4c4.4,0.4,8.7,0.7,13,1c4.3,0.3,8.6,0.7,12.9,1.2c2.1,0.2,3.6,0.7,4.4,1.4c0.8,0.7,1.6,2.2,2.3,4.5
		c-0.7,0.6-1.5,1.1-2.2,1.8c-0.7,0.6-1.4,1.2-2.2,1.8c-0.6,0.4-1,0.6-1.4,0.6c-2.9,0-5.7,0-8.5,0s-5.6,0-8.5-0.1
		c-3.1-0.1-6.2-0.2-9.2-0.4s-6.2-0.3-9.2-0.4c-0.5-0.1-0.9-0.1-1.3-0.1s-0.9,0-1.3,0c0,1.7,0,3.3-0.1,4.8c0,1.5,0,2.9,0.1,4.3
		c0.4,6.3,0.7,12.6,1.1,18.9c0.4,6.3,0.8,12.5,1.3,18.8c0.3,4.6,0.8,9.1,1.6,13.5c0.8,4.4,1.5,8.9,2.2,13.4
		c0.7,4.9,1.5,9.7,2.2,14.6c0.7,4.9,1.3,9.8,1.8,14.7c0.3,3.1,0.6,6.1,0.9,9C454.9,212.7,455.2,215.9,455.3,219.2z"/>
	<path class="st0" d="M595.2,175.3c-1.8,3.9-3.6,7.8-5.4,11.6c-1.8,3.8-3.8,7.7-5.8,11.5c-1.9,3.6-4,7.1-6.4,10.4
		c-2.4,3.3-4.9,6.5-7.6,9.6c-4.1,4.9-8.8,8.5-13.9,11c-5.2,2.5-11.1,3.3-17.9,2.6c-7-0.7-13-2.9-17.9-6.6
		c-4.9-3.6-9.1-8.5-12.3-14.7c-2.2-4.5-4-9-5.3-13.6c-1.3-4.6-2.1-9.4-2.6-14.4c-0.5-3.8-0.7-7.6-0.6-11.3c0-3.7,0.2-7.5,0.4-11.3
		c0.2-3.9,0.6-7.8,1.3-11.6c0.7-3.8,1.5-7.7,2.7-11.5c1.6-5.6,3.5-11,5.8-16.2c2.3-5.2,5.3-10.1,9-14.7c2.2-2.8,4.7-5.3,7.4-7.5
		c2.7-2.2,5.6-4.1,8.8-5.8c2.7-1.4,5.5-2.5,8.3-3.4c2.8-0.9,5.8-1.4,8.8-1.6c3.4-0.2,6.7,0,9.9,0.6c3.3,0.6,6.4,1.9,9.4,4.1
		c0.7,0.6,1.5,1.1,2.3,1.6c0.8,0.5,1.6,1,2.5,1.5c2.9,1.9,5.4,4.1,7.5,6.7c2.1,2.6,4,5.4,5.8,8.4c1.8,3,2.9,6.2,3.4,9.5
		c0.5,3.4,0.4,6.8-0.3,10.4c-2.2,11.6-7.7,21.5-16.4,29.8c-2.5,2.4-5.1,4.8-7.7,7.1c-2.6,2.3-5.4,4.4-8.3,6.4
		c-4.1,2.7-8.4,4.9-12.8,6.6c-4.4,1.7-9.2,2.6-14.2,2.8c-0.1,0-0.5,0.1-1.3,0.3c0.7,4,1.6,7.8,2.9,11.3c1.3,3.5,3.2,6.8,5.7,9.8
		c2.1,2.4,4.5,4.2,7.2,5.5c2.7,1.2,5.6,1.9,8.8,2.1c1.3,0.1,2.5-0.2,3.4-0.8c1-0.6,2-1.3,3-2c2.1-1.9,4.1-3.9,5.9-6.1
		c1.8-2.2,3.4-4.5,4.9-6.9c2.1-3.3,4.1-6.6,5.9-9.9c1.8-3.4,3.4-6.8,4.8-10.4c0.7-1.7,1.6-3.1,2.6-4.3c1-1.2,2.4-1.9,4.3-2.2
		c1.1,0.1,2.1,0.4,2.9,0.8c0.7,0.5,1.2,1.1,1.5,1.9C596,172.9,595.9,174,595.2,175.3z M530.5,175.1c1.2-0.2,2.3-0.3,3.3-0.4
		c1-0.1,1.9-0.3,2.9-0.6c3.3-0.7,6.4-1.8,9.3-3.3c2.9-1.4,5.7-3.1,8.3-5.1c2.1-1.6,4.2-3.2,6.2-4.8c2-1.6,3.9-3.3,5.7-5.1
		c3.9-3.5,7-7.6,9.2-12s3.8-9.3,4.6-14.4c0.5-2.3,0.5-4.6,0-6.7c-0.5-2.1-1.5-4.1-3.1-5.9c-3-3.5-6.5-5.9-10.6-6.9
		c-4.1-1.1-8.2-0.6-12.4,1.5c-3.6,1.8-6.8,4.1-9.5,6.9c-2.7,2.8-4.9,6-6.6,9.6c-3,6-5.1,12.4-6.4,19.2c-0.7,3.6-1.3,7.3-1.6,10.9
		c-0.3,3.6-0.4,7.3-0.2,11.1c0.1,1,0.2,2,0.4,3C530.2,173,530.3,174,530.5,175.1z"/>
	<path class="st0" d="M702.3,175.3c-1.8,3.9-3.6,7.8-5.4,11.6c-1.8,3.8-3.8,7.7-5.8,11.5c-1.9,3.6-4,7.1-6.4,10.4
		c-2.4,3.3-4.9,6.5-7.6,9.6c-4.1,4.9-8.8,8.5-13.9,11c-5.2,2.5-11.1,3.3-17.9,2.6c-7-0.7-13-2.9-17.9-6.6
		c-4.9-3.6-9.1-8.5-12.3-14.7c-2.2-4.5-4-9-5.3-13.6c-1.3-4.6-2.1-9.4-2.6-14.4c-0.5-3.8-0.7-7.6-0.6-11.3c0-3.7,0.2-7.5,0.4-11.3
		c0.2-3.9,0.6-7.8,1.3-11.6c0.7-3.8,1.5-7.7,2.7-11.5c1.6-5.6,3.5-11,5.8-16.2c2.3-5.2,5.3-10.1,9-14.7c2.2-2.8,4.7-5.3,7.4-7.5
		c2.7-2.2,5.6-4.1,8.8-5.8c2.7-1.4,5.5-2.5,8.3-3.4c2.8-0.9,5.8-1.4,8.8-1.6c3.4-0.2,6.7,0,9.9,0.6c3.3,0.6,6.4,1.9,9.4,4.1
		c0.7,0.6,1.5,1.1,2.3,1.6c0.8,0.5,1.6,1,2.5,1.5c2.9,1.9,5.4,4.1,7.5,6.7c2.1,2.6,4,5.4,5.8,8.4c1.8,3,2.9,6.2,3.4,9.5
		c0.5,3.4,0.4,6.8-0.3,10.4c-2.2,11.6-7.7,21.5-16.4,29.8c-2.5,2.4-5.1,4.8-7.7,7.1c-2.6,2.3-5.4,4.4-8.3,6.4
		c-4.1,2.7-8.4,4.9-12.8,6.6c-4.4,1.7-9.2,2.6-14.2,2.8c-0.1,0-0.5,0.1-1.3,0.3c0.7,4,1.6,7.8,2.9,11.3c1.3,3.5,3.2,6.8,5.7,9.8
		c2.1,2.4,4.5,4.2,7.2,5.5c2.7,1.2,5.6,1.9,8.8,2.1c1.3,0.1,2.5-0.2,3.4-0.8c1-0.6,2-1.3,3-2c2.1-1.9,4.1-3.9,5.9-6.1
		c1.8-2.2,3.4-4.5,4.9-6.9c2.1-3.3,4.1-6.6,5.9-9.9c1.8-3.4,3.4-6.8,4.8-10.4c0.7-1.7,1.6-3.1,2.6-4.3c1-1.2,2.4-1.9,4.3-2.2
		c1.1,0.1,2.1,0.4,2.9,0.8c0.7,0.5,1.2,1.1,1.5,1.9C703.1,172.9,703,174,702.3,175.3z M637.6,175.1c1.2-0.2,2.3-0.3,3.3-0.4
		c1-0.1,1.9-0.3,2.9-0.6c3.3-0.7,6.4-1.8,9.3-3.3c2.9-1.4,5.7-3.1,8.3-5.1c2.1-1.6,4.2-3.2,6.2-4.8c2-1.6,3.9-3.3,5.7-5.1
		c3.9-3.5,7-7.6,9.2-12s3.8-9.3,4.6-14.4c0.5-2.3,0.5-4.6,0-6.7c-0.5-2.1-1.5-4.1-3.1-5.9c-3-3.5-6.5-5.9-10.6-6.9
		c-4.1-1.1-8.2-0.6-12.4,1.5c-3.6,1.8-6.8,4.1-9.5,6.9c-2.7,2.8-4.9,6-6.6,9.6c-3,6-5.1,12.4-6.4,19.2c-0.7,3.6-1.3,7.3-1.6,10.9
		c-0.3,3.6-0.4,7.3-0.2,11.1c0.1,1,0.2,2,0.4,3C637.3,173,637.4,174,637.6,175.1z"/>
	<path class="st0" d="M784.6,172.5c0.6-1,1.3-1.8,2.2-2.2c0.9-0.4,1.8-0.7,2.6-0.9c1-0.2,2-0.2,2.9,0c0.7,0.4,1.1,0.8,1.3,1.3
		c0.2,0.5,0.3,1.1,0.3,1.9c0,2.3,0,4.7,0,7c0,2.3,0,4.7,0.1,7.1c0.1,4,0.8,7.7,2.2,11.2c1.4,3.5,3.3,6.8,5.7,9.9
		c1.6,2.1,3.8,3.5,6.6,4.3c5.2,1.8,10.2,2.2,14.9,1.2c4.7-1,9.3-2.9,13.8-5.8c1-0.7,2-1.5,2.9-2.3c0.9-0.8,1.8-1.6,2.6-2.4
		c2.1-2.2,3.6-4.8,4.5-7.6c0.8-2.8,1.4-5.7,1.5-8.7c0.3-5.2,0.1-10.3-0.6-15.3c-0.7-5-2-9.9-3.9-14.8c-1.2-3-2.5-5.9-3.8-8.9
		c-1.4-2.9-3.1-5.7-5.3-8.2c-1.1-1.3-2.3-2.6-3.5-3.8c-1.2-1.2-2.5-2.3-3.8-3.4c-3-2.6-6.1-5-9.2-7.3c-3.2-2.2-6.5-4.2-10.1-6
		c-2.5-1.2-5-2.5-7.4-4c-2.4-1.4-4.7-3.1-6.7-5.1c-2.1-2.1-4.2-4.4-6-6.7c-1.9-2.3-3.4-4.9-4.5-7.8c-1.8-4.4-2.6-9.1-2.4-14.3
		c0.2-3.2,0.7-6.2,1.5-9.2s2.1-5.8,3.8-8.5c5.4-8.7,13.2-14.7,23.2-18.2c4.9-1.7,10-2.2,15.3-1.7c1.5,0.2,3,0.4,4.5,0.6
		c1.5,0.2,3,0.5,4.5,1c3.5,0.9,6.8,2.3,9.9,4.1c3,1.8,5.9,4,8.5,6.7c1,1,1.9,2.1,2.7,3.1c0.8,1.1,1.7,2.1,2.6,3.1
		c0.7,0.7,1.3,1.5,2,2.3c0.7,0.8,1.3,1.6,1.9,2.3c1,1.6,2.1,3.1,3.1,4.6c1,1.5,2,3,2.9,4.6c0.7,1.1,0.9,2.1,0.7,2.8
		c-0.2,0.7-0.7,1.5-1.5,2.2c-2,1.7-3.9,1.9-5.7,0.6c-1.3-0.8-2.5-1.7-3.6-2.6c-1.1-0.9-2.3-1.8-3.5-2.9c-1.9-1.6-3.9-2.9-6.1-4
		c-2.2-1.1-4.5-1.8-6.9-2.2c-3.8-0.7-7.5-0.6-11.1,0.1c-3.5,0.7-6.9,2.3-9.9,4.7c-4.5,3.5-6,7.4-4.6,11.8c0.5,1.6,1.3,2.8,2.4,3.8
		c1.1,0.9,2.3,1.8,3.6,2.5c2.1,1.3,4.3,2.5,6.5,3.6c2.2,1.1,4.4,2.3,6.5,3.6c6.5,3.8,12.3,8.6,17.2,14.3c1.9,2.1,3.6,4.3,5.3,6.5
		c1.7,2.2,3.3,4.5,4.8,6.9c1.7,2.9,3.3,5.8,4.9,8.8c1.6,3,2.8,6.1,3.8,9.4c0.8,2.9,1.7,5.8,2.6,8.6c0.9,2.8,1.5,5.8,1.9,8.8
		c1.1,9.2,0.8,18.2-1,27c-0.9,4.9-2.4,9.4-4.4,13.5c-2,4.2-4.5,8.2-7.5,12.1c-0.5,0.8-1.2,1.7-2.2,2.5c-3.7,3-7.6,5.6-11.7,7.7
		c-4.1,2.1-8.5,3.8-13.2,4.9c-6.4,1.4-12.5,1.4-18.1-0.1c-5.6-1.4-10.9-4.2-16-8.3c-1.3-1.1-2.6-2.3-4-3.6c-1.4-1.3-2.6-2.5-3.7-3.8
		c-1.9-2.2-3.3-4.6-4.4-7.2c-1.1-2.6-2.1-5.2-3-7.9c-1.8-4.6-2.7-9.3-2.8-14.1c0-2.1,0.1-4.1,0.3-6.2c0.2-2.1,0.4-4.1,0.6-6.2
		C784.1,173.5,784.3,173,784.6,172.5z"/>
	<path class="st0" d="M910.9,187c0.2-1.9,0.4-3.7,0.7-5.6c0.3-1.9,0.5-3.7,0.7-5.6c0.5-3.6,0.9-7.3,1.2-10.9
		c0.3-3.6,0.8-7.3,1.3-10.9c0.7-3.8,1.3-7.6,2-11.4c0.7-3.8,1.5-7.6,2.5-11.4c1-4.1,2.3-8.1,3.7-12c1.4-3.9,3.2-7.7,5.4-11.3
		c1.4-2.3,2.8-4.6,4.3-6.8c1.4-2.2,3.2-4.2,5.4-6c0.7-0.7,1.5-1.3,2.3-1.9c0.8-0.6,1.6-1.1,2.5-1.6c1-0.7,2.1-1,3.2-1
		c1.1,0,2.3,0.1,3.5,0.4c2.1,0.5,4,1.2,5.8,2.2c1.8,1,3.6,2.1,5.3,3.3c0.7,0.4,1.2,0.7,1.3,1c1,1.8,2,3.5,3,5.2
		c1,1.7,1.8,3.5,2.3,5.3c0.7,2.4,1.3,4.9,1.8,7.3c0.4,2.4,0.9,4.9,1.3,7.4c0.3,1.4,0.4,2.8,0.5,4.3c0,1.5,0.3,2.9,0.6,4.3
		c0.7,3.1,1,6.2,0.6,9.3c-0.3,3.1-0.3,6.2,0.2,9.3c0.2,0.6,0.2,1.1,0.1,1.8c-0.1,0.6-0.2,1.2-0.2,1.9c0.1,2.1,0.2,4.3,0.2,6.6
		c0,2.2,0.2,4.4,0.3,6.6c0.3,3.5,0.6,7.1,1,10.8c0.4,3.6,0.7,7.2,1.1,10.8c0.3,3.5,0.5,7.1,0.8,10.7c0.2,3.6,0.6,7.2,1,10.7
		c0.2,1.3,0.5,2.6,1,3.8c0.5,1.2,0.9,2.5,1.3,3.8c0.3,1,0.4,2.1,0.4,3.4c0,1.1-0.1,2.2-0.3,3.3c-0.2,1.1-0.6,2.1-1,3.1
		c-0.8,2.3-2.4,3.2-4.8,2.7c-7.1-1.9-12.2-5.9-15.3-12.2c-2.8-5.6-5-11.4-6.5-17.3c-1.5-5.9-2.6-12-3.2-18.1
		c-0.7-7.6-1.2-15.1-1.5-22.7c-0.2-7.6-0.1-15.1,0.3-22.7c0.3-4.4,0.3-8.8,0.1-13.1c-0.2-4.3-0.4-8.7-0.6-13.1c0-0.4-0.1-0.7-0.2-1
		c-0.1-0.3-0.3-0.9-0.5-1.6c-0.8,1.3-1.6,2.5-2.3,3.6c-0.7,1.1-1.3,2.2-1.8,3.2c-2,4.1-3.7,8.2-5.3,12.4c-1.5,4.2-2.8,8.5-3.7,12.9
		c-0.3,1.6-0.7,3.2-1.1,4.8c-0.5,1.6-0.9,3.2-1.3,4.8c-0.5,1.9-0.9,3.8-1.2,5.7c-0.3,2-0.7,3.9-1,5.7c-1,4.8-1.9,9.5-2.5,14.3
		c-0.7,4.4-1.4,8.8-1.9,13.1c-0.5,4.3-1.1,8.7-1.8,13.1c-0.4,2.5-0.8,5-1.3,7.4c-0.5,2.4-1.2,4.9-2.2,7.3c-0.8,2.2-2.1,4.2-3.6,5.8
		c-1.6,1.6-3.2,3.2-4.9,4.7c-1,0.9-2.2,1.8-3.4,2.5c-1.3,0.7-2.5,1.4-3.9,2c-1.8,0.8-3.2,1-4.4,0.6c-1.2-0.4-2.3-1.4-3.4-3
		c-1.3-2-2.4-4-3.4-6.2c-0.9-2.1-1.6-4.4-2-6.7c-0.5-3-0.8-5.9-1.1-8.8c-0.3-2.9-0.6-5.8-1-8.8c-0.2-2.1-0.4-4.1-0.7-6.2
		c-0.3-2.1-0.6-4.1-0.8-6.2c-0.8-6.9-1.6-13.8-2.2-20.6c-0.6-6.8-1-13.7-1-20.7c-0.2-11.1-0.3-22.2-0.4-33.2
		c-0.1-11-0.2-22.1-0.3-33.2c-0.1-7.9-0.1-15.8,0-23.7s0.1-15.7,0.1-23.7c0-1.8,0.5-3.4,1.6-4.8c1.1-1.4,2.6-2.2,4.5-2.5
		c2.8-0.3,5.3,0.4,7.4,2c1.7,1.1,2.9,2.5,3.7,4.1c0.8,1.6,1.4,3.3,1.9,5.2c0.8,3.5,1.3,6.9,1.5,10.4c0.1,3.5,0.3,6.9,0.5,10.4
		c0.1,3.2,0.2,6.3,0.4,9.4c0.2,3.1,0.4,6.2,0.6,9.2c0.1,1.8,0.1,3.5,0.1,5.3c0,1.7,0,3.5,0.1,5.3c0.1,1.7,0.2,3.4,0.2,5
		c0,1.7,0.2,3.4,0.3,5c0.2,2.9,0.4,5.8,0.6,8.6c0.2,2.8,0.5,5.7,0.8,8.6c0.5,3.9,0.6,7.8,0.5,11.6c-0.1,3.8-0.3,7.7-0.5,11.6
		c-0.1,1.6,0,3.2,0.1,4.8c0.2,1.6,0.4,3.2,0.6,4.8c0.1,1.8,0.2,3.5,0.3,5.3c0.1,1.8,0.2,3.6,0.4,5.5c0.2,2.5,0.3,5,0.4,7.6
		c0.1,2.5,0.2,5.1,0.4,7.7c0.2,2.3,0.3,4.6,0.5,6.9c0.1,2.2,0.3,4.5,0.5,6.9c0.1,0.5,0.2,0.9,0.3,1.3c0.1,0.4,0.2,0.9,0.3,1.3
		C910.5,187.2,910.7,187.1,910.9,187z"/>
	<path class="st0" d="M1087,160.4c-0.1,4.5-0.2,8.5-0.4,12c-0.2,3.5-0.7,6.9-1.5,10.1c-0.7,2.8-1.5,5.6-2.4,8.3
		c-0.8,2.8-1.9,5.5-3.2,8.2c-1.3,2.5-2.7,5-4.1,7.4c-1.4,2.4-2.8,4.9-4.2,7.3c-1.5,2.4-3.3,4.6-5.3,6.4c-2.1,1.9-4.2,3.6-6.4,5.2
		c-0.2,0.2-0.4,0.3-0.5,0.4c-0.1,0-0.3,0.2-0.5,0.4c-3,2.6-6.3,4.3-9.8,5c-3.5,0.7-7.2,1-10.9,1c-1.6,0-3.2-0.2-4.8-0.5
		c-1.6-0.3-3.2-0.6-4.8-0.9c-7.9-1.6-14.5-4.8-19.7-9.5c-5.2-4.8-9.3-10.7-12.4-17.8c-2.8-6.3-4.6-12.6-5.5-19.2
		c-0.8-6.5-0.9-13.2-0.3-19.9c0.5-5,1.2-10,2.2-14.8c1-4.9,2.4-9.7,4.1-14.4c2.4-7.1,5.6-13.7,9.4-19.8c3.8-6.1,8.6-11.6,14.4-16.6
		c7.7-6.5,16.6-10,26.7-10.5c4.8-0.3,9,0.5,12.8,2.4c3.8,1.9,7.2,4.7,10.1,8.3c3.4,4.2,6,8.7,7.8,13.5c1.8,4.8,3.3,9.7,4.5,14.8
		c0.7,3.1,1.3,6.2,1.8,9.2s0.9,6.2,1.3,9.4c0.5,2.7,0.9,5.4,1.2,8C1087.1,156.5,1087.2,158.7,1087,160.4z M1020.5,174.3
		c0.1,3.4,0.7,7.3,1.8,11.7c1.1,4.4,3.1,8.8,5.9,13.1c3,4.5,6.6,7.8,10.9,9.9c4.2,2.1,9.1,3,14.6,2.5c1.3-0.2,2.6-0.5,3.8-1
		c1.2-0.5,2.4-1,3.6-1.5c2.4-1.2,4.3-2.9,5.7-5c1.4-2.1,2.6-4.4,3.8-6.7c1.9-3.8,3.2-7.7,3.9-11.8c0.7-4,1.3-8.1,1.7-12.2
		c0.4-3.5,0.6-7,0.6-10.5c0-3.5-0.4-6.9-1.1-10.4c-0.5-2.4-0.9-4.9-1.3-7.3c-0.4-2.4-0.8-4.9-1.4-7.3c-0.7-3.5-1.7-6.9-2.7-10.2
		c-1.1-3.4-2.5-6.5-4.4-9.5c-1.7-2.8-3.6-5.3-5.7-7.6c-2.1-2.2-4.8-4-8-5.3c-2.7-1-4.9-1.3-6.7-0.8c-1.8,0.5-3.5,1.9-5.3,4.3
		c-4.9,6.4-8.9,13.6-11.9,21.4c-2.4,6.6-4.3,13.5-5.5,20.5C1021.4,157.8,1020.7,165.6,1020.5,174.3z"/>
	<path class="st0" d="M1121.3,129.6c2.1-3,4.2-5.9,6.2-8.6c2-2.8,4.1-5.4,6.2-8.1c2.6-3.1,5.3-6,8.2-8.7c2.8-2.7,6-5.1,9.5-7.3
		c6.6-4.1,13.8-5.7,21.4-4.9c2.4,0.2,4.6,0.9,6.6,2.2c2,1.3,3.7,2.9,5.3,4.8c0.5,0.6,0.8,1.3,0.9,2.1c0.1,0.8,0.3,1.6,0.3,2.4
		c0.2,2.7,0.1,5.4-0.3,8c-0.4,2.6-1,5.2-1.6,7.8c-0.7,3-1.7,5.8-2.9,8.4c-1.2,2.6-2.5,5.3-3.9,8c-1.6,3-3.4,5.7-5.5,8.3
		c-2.1,2.5-4.2,4.9-6.6,7.3c-3.3,3.3-6.8,6.3-10.5,9.2c-3.7,2.8-8,4.9-12.7,6.2c-2.4,0.7-4.9,1.5-7.4,2.2c-2.5,0.7-5.1,1.4-7.8,2.2
		c0.1,1.6,0.2,3.2,0.2,4.9c0,1.7,0.2,3.5,0.3,5.3c0.3,4,0.7,8,1.2,12c0.5,4,0.8,8,0.9,12.1c0,2.8,0.3,5.6,0.9,8.4
		c0.6,2.8,1.1,5.6,1.6,8.5c0.2,1.4,0.4,2.5,0.6,3.4c0.2,0.8,0.4,1.6,0.6,2.3c0.2,0.7,0.4,1.5,0.6,2.3c0.2,0.8,0.4,2,0.6,3.5
		c0.5,3.5,1,6.9,1.5,10.3c0.5,3.4,1,6.8,1.6,10.3c0.7,5,1.4,10,1.8,15c0.5,4.9,0.6,9.9,0.4,15c-0.1,1.7-0.2,3.3-0.2,5
		c0,1.6-0.2,3.3-0.3,5c-0.2,1.4-0.4,2.8-0.5,4.3c-0.1,1.4-0.3,2.8-0.6,4.1c-0.2,0.7-0.6,1.4-1.3,1.9c-0.7,0.5-1.4,0.9-2.2,1.1
		c-0.8,0.2-1.7,0.3-2.7,0.1c-0.9-0.2-1.7-0.6-2.4-1.1c-1.6-1.3-3-2.7-4.3-4.3c-1.3-1.5-2.3-3.2-3.2-5.1c-0.8-2-1.7-3.9-2.6-6
		c-0.9-2-1.6-4-2.2-6.1c-1.3-4.7-2.5-9.3-3.5-13.9c-1-4.6-2.1-9.3-3.1-13.9c-0.7-2.7-1.3-5.3-1.8-7.9c-0.6-2.6-1-5.2-1.4-7.8
		c-0.3-2.1-0.6-4-0.8-5.5c-0.3-1.5-0.5-2.9-0.8-4.3c-0.2-1.4-0.4-2.8-0.6-4.3c-0.2-1.5-0.4-3.3-0.7-5.5c-0.5-3.6-0.9-7.3-1.3-10.9
		c-0.4-3.6-0.8-7.2-1.3-10.9c-0.5-4-0.9-8-1.3-11.9c-0.4-3.9-0.9-7.8-1.3-11.8c-0.4-2.4-0.7-4.9-1.1-7.4c-0.4-2.5-0.7-4.9-1.1-7.4
		c-0.5-3.6-1-7.3-1.5-10.9c-0.5-3.6-1-7.3-1.5-10.9c-0.5-4.6-0.9-9.1-1.2-13.7c-0.3-4.5-0.4-9.1-0.2-13.8c0-0.7,0-1.4-0.1-2.1
		c-0.1-0.7-0.1-1.3-0.1-2c-0.1-2.6,0.2-5.1,0.9-7.4c0.7-2.3,1.6-4.7,2.6-7c1-2.1,2.6-3.4,4.6-3.7c2.1-0.3,4.3,0.1,6.7,1.2
		c1.8,0.7,3.2,1.8,4.4,3.2c1.2,1.4,2.1,3,2.7,4.9c1.4,4.5,2.6,8.9,3.7,13.3c1.1,4.4,1.8,8.9,2.2,13.6c0.1,0.7,0.2,1.5,0.3,2.2
		C1121,127.9,1121.1,128.7,1121.3,129.6z M1129.9,149c0.4,0.4,0.7,0.7,1,0.8c2.1-1.1,4.2-2.2,6.3-3.2c2.1-1,4.2-2.1,6-3.4
		c7.2-4.9,13.4-10.5,18.8-16.9c2.7-3.2,4.6-6.6,5.7-10.2c1.1-3.6,1.7-7.5,1.8-11.7c-4.1,0.5-7.6,1.8-10.4,4.1
		c-1.6,1.3-3.1,2.7-4.5,4.1c-1.4,1.4-3,2.8-4.5,4.1c-4.5,3.9-8.2,8.3-11.3,13.1c-3,4.8-5.7,9.9-7.9,15.3c-0.2,0.7-0.3,1.3-0.5,1.9
		C1130.2,147.7,1130,148.3,1129.9,149z"/>
</g>
</svg>
